# xmcd CD database file generated by OrangeCD 5.2
#
# Track frame offsets:
#	150
#	15023
#	28845
#	41563
#	55813
#	70400
#	83488
#	95600
#	106863
#	121075
#
# Disc length: 1799 seconds
#
# Revision: 1
# Processed by: cddbd v1.5.1PL0 Copyright (c) Steve Scherf et al.
# Submitted via: OrangeCD 5.2
#
DISCID=6f07050a
DTITLE=Various Artist - Johnny Otis Presents The Best Of Rhythm and Blues Volume
DTITLE=3
DYEAR=1993
DGENRE=R&B Compilation
TTITLE0=Pee Wee Crayton - Texas Hop
TTITLE1=Joe Turner - Chains Of Love
TTITLE2=Louis Jordan - Choo Choo Ch'Boogie
TTITLE3=Charles Brown - Black Night
TTITLE4=Eddie "Cleanhead" Vinson - Sugar
TTITLE5=Richard Berry - Have Love, Will Travel
TTITLE6=Gatemouth Moore - Did You Ever Love A Woman
TTITLE7=Amos Milburn - Bad, Bad Whiskey
TTITLE8=Johnny Otis - Bye, Bye Baby
TTITLE9=Joe Liggins and His Honeydrippers - Tanya
EXTD=
EXTT0=
EXTT1=
EXTT2=
EXTT3=
EXTT4=
EXTT5=
EXTT6=
EXTT7=
EXTT8=
EXTT9=
PLAYORDER=
